<svg width="800" height="400" viewBox="0 0 800 400" fill="none" xmlns="http://www.w3.org/2000/svg">
  <!-- Background -->
  <rect width="800" height="400" fill="url(#gradient)"/>
  
  <!-- Gradient Definition -->
  <defs>
    <linearGradient id="gradient" x1="0%" y1="0%" x2="100%" y2="100%">
      <stop offset="0%" style="stop-color:#2563eb;stop-opacity:1" />
      <stop offset="100%" style="stop-color:#1e3a8a;stop-opacity:1" />
    </linearGradient>
  </defs>
  
  <!-- NDIS Plan Document -->
  <rect x="100" y="120" width="200" height="260" rx="8" fill="white" stroke="#e5e7eb" stroke-width="2"/>
  
  <!-- Document Header -->
  <rect x="100" y="120" width="200" height="40" fill="#1e3a8a"/>
  <text x="200" y="145" text-anchor="middle" fill="white" font-family="Arial, sans-serif" font-size="14" font-weight="bold">NDIS PLAN</text>
  
  <!-- Plan Sections -->
  <rect x="120" y="180" width="160" height="25" fill="#f9fafb"/>
  <text x="130" y="197" fill="#374151" font-family="Arial, sans-serif" font-size="11" font-weight="bold">Participant: John Smith</text>
  
  <rect x="120" y="210" width="160" height="25" fill="white"/>
  <text x="130" y="227" fill="#374151" font-family="Arial, sans-serif" font-size="11" font-weight="bold">Plan Period: 2024-2025</text>
  
  <rect x="120" y="240" width="160" height="25" fill="#f9fafb"/>
  <text x="130" y="257" fill="#374151" font-family="Arial, sans-serif" font-size="11" font-weight="bold">Review Date: June 2025</text>
  
  <rect x="120" y="270" width="160" height="25" fill="white"/>
  <text x="130" y="287" fill="#374151" font-family="Arial, sans-serif" font-size="11" font-weight="bold">Total Funding: $45,000</text>
  
  <rect x="120" y="300" width="160" height="25" fill="#f9fafb"/>
  <text x="130" y="317" fill="#374151" font-family="Arial, sans-serif" font-size="11" font-weight="bold">Status: Active</text>
  
  <rect x="120" y="330" width="160" height="25" fill="white"/>
  <text x="130" y="347" fill="#374151" font-family="Arial, sans-serif" font-size="11" font-weight="bold">Last Review: June 2024</text>
  
  <!-- Goal Setting Chart -->
  <rect x="350" y="120" width="200" height="180" rx="8" fill="white" stroke="#e5e7eb" stroke-width="2"/>
  
  <!-- Chart Header -->
  <rect x="350" y="120" width="200" height="30" fill="#2563eb"/>
  <text x="450" y="140" text-anchor="middle" fill="white" font-family="Arial, sans-serif" font-size="12" font-weight="bold">GOAL PROGRESS</text>
  
  <!-- Goal Items -->
  <rect x="370" y="160" width="160" height="20" fill="#f9fafb"/>
  <text x="380" y="175" fill="#374151" font-family="Arial, sans-serif" font-size="10">Daily Living Skills</text>
  <rect x="500" y="165" width="20" height="10" fill="#10b981"/>
  
  <rect x="370" y="185" width="160" height="20" fill="white"/>
  <text x="380" y="200" fill="#374151" font-family="Arial, sans-serif" font-size="10">Community Access</text>
  <rect x="500" y="190" width="30" height="10" fill="#10b981"/>
  
  <rect x="370" y="210" width="160" height="20" fill="#f9fafb"/>
  <text x="380" y="225" fill="#374151" font-family="Arial, sans-serif" font-size="10">Social Participation</text>
  <rect x="500" y="215" width="25" height="10" fill="#f59e0b"/>
  
  <rect x="370" y="235" width="160" height="20" fill="white"/>
  <text x="380" y="250" fill="#374151" font-family="Arial, sans-serif" font-size="10">Employment Goals</text>
  <rect x="500" y="240" width="15" height="10" fill="#ef4444"/>
  
  <rect x="370" y="260" width="160" height="20" fill="#f9fafb"/>
  <text x="380" y="275" fill="#374151" font-family="Arial, sans-serif" font-size="10">Health & Wellbeing</text>
  <rect x="500" y="265" width="35" height="10" fill="#10b981"/>
  
  <!-- Review Process -->
  <rect x="100" y="320" width="200" height="60" rx="8" fill="white" stroke="#e5e7eb" stroke-width="2"/>
  
  <!-- Review Header -->
  <rect x="100" y="320" width="200" height="20" fill="#10b981"/>
  <text x="200" y="335" text-anchor="middle" fill="white" font-family="Arial, sans-serif" font-size="10" font-weight="bold">REVIEW PROCESS</text>
  
  <!-- Review Steps -->
  <text x="110" y="350" fill="#374151" font-family="Arial, sans-serif" font-size="9">1. Pre-review preparation</text>
  <text x="110" y="365" fill="#374151" font-family="Arial, sans-serif" font-size="9">2. Review meeting</text>
  <text x="110" y="380" fill="#374151" font-family="Arial, sans-serif" font-size="9">3. Plan updates</text>
  
  <!-- Support Coordination -->
  <rect x="350" y="320" width="200" height="60" rx="8" fill="white" stroke="#e5e7eb" stroke-width="2"/>
  
  <!-- Support Header -->
  <rect x="350" y="320" width="200" height="20" fill="#f59e0b"/>
  <text x="450" y="335" text-anchor="middle" fill="white" font-family="Arial, sans-serif" font-size="10" font-weight="bold">SUPPORT COORDINATION</text>
  
  <!-- Support Items -->
  <text x="360" y="350" fill="#374151" font-family="Arial, sans-serif" font-size="9">• Goal setting support</text>
  <text x="360" y="365" fill="#374151" font-family="Arial, sans-serif" font-size="9">• Review preparation</text>
  <text x="360" y="380" fill="#374151" font-family="Arial, sans-serif" font-size="9">• Implementation support</text>
  
  <!-- Documentation -->
  <rect x="600" y="120" width="150" height="180" rx="8" fill="white" stroke="#e5e7eb" stroke-width="2"/>
  
  <!-- Documentation Header -->
  <rect x="600" y="120" width="150" height="30" fill="#8b5cf6"/>
  <text x="675" y="140" text-anchor="middle" fill="white" font-family="Arial, sans-serif" font-size="12" font-weight="bold">DOCUMENTATION</text>
  
  <!-- Documentation Items -->
  <rect x="610" y="160" width="130" height="15" fill="#f9fafb"/>
  <text x="620" y="172" fill="#374151" font-family="Arial, sans-serif" font-size="9">✓ Progress reports</text>
  
  <rect x="610" y="180" width="130" height="15" fill="white"/>
  <text x="620" y="192" fill="#374151" font-family="Arial, sans-serif" font-size="9">✓ Goal evidence</text>
  
  <rect x="610" y="200" width="130" height="15" fill="#f9fafb"/>
  <text x="620" y="212" fill="#374151" font-family="Arial, sans-serif" font-size="9">✓ Support records</text>
  
  <rect x="610" y="220" width="130" height="15" fill="white"/>
  <text x="620" y="232" fill="#374151" font-family="Arial, sans-serif" font-size="9">✓ Outcome data</text>
  
  <rect x="610" y="240" width="130" height="15" fill="#f9fafb"/>
  <text x="620" y="252" fill="#374151" font-family="Arial, sans-serif" font-size="9">✓ Stakeholder input</text>
  
  <rect x="610" y="260" width="130" height="15" fill="white"/>
  <text x="620" y="272" fill="#374151" font-family="Arial, sans-serif" font-size="9">✓ Review records</text>
  
  <!-- Main Title -->
  <text x="400" y="50" text-anchor="middle" fill="white" font-family="Arial, sans-serif" font-size="24" font-weight="bold">NDIS Plan Reviews and Updates</text>
  
  <!-- Subtitle -->
  <text x="400" y="75" text-anchor="middle" fill="#93c5fd" font-family="Arial, sans-serif" font-size="16">Complete Guide for Support Providers</text>
  
  <!-- Bottom Text -->
  <text x="400" y="380" text-anchor="middle" fill="white" font-family="Arial, sans-serif" font-size="14">Goal Setting • Review Process • Plan Updates • Support Coordination • Documentation</text>
</svg>
