<svg width="800" height="400" viewBox="0 0 800 400" fill="none" xmlns="http://www.w3.org/2000/svg">
  <!-- Background -->
  <rect width="800" height="400" fill="url(#gradient)"/>
  
  <!-- Gradient Definition -->
  <defs>
    <linearGradient id="gradient" x1="0%" y1="0%" x2="100%" y2="100%">
      <stop offset="0%" style="stop-color:#2563eb;stop-opacity:1" />
      <stop offset="100%" style="stop-color:#1e3a8a;stop-opacity:1" />
    </linearGradient>
  </defs>
  
  <!-- Price Guide Document -->
  <rect x="100" y="120" width="200" height="260" rx="8" fill="white" stroke="#e5e7eb" stroke-width="2"/>
  
  <!-- Document Header -->
  <rect x="100" y="120" width="200" height="40" fill="#1e3a8a"/>
  <text x="200" y="145" text-anchor="middle" fill="white" font-family="Arial, sans-serif" font-size="14" font-weight="bold">NDIS PRICE GUIDE</text>
  
  <!-- Price Categories -->
  <rect x="120" y="180" width="160" height="25" fill="#f9fafb"/>
  <text x="130" y="197" fill="#374151" font-family="Arial, sans-serif" font-size="11" font-weight="bold">Core Supports</text>
  <text x="260" y="197" fill="#10b981" font-family="Arial, sans-serif" font-size="11" font-weight="bold">$65.00/hr</text>
  
  <rect x="120" y="210" width="160" height="25" fill="white"/>
  <text x="130" y="227" fill="#374151" font-family="Arial, sans-serif" font-size="11" font-weight="bold">Capacity Building</text>
  <text x="260" y="227" fill="#10b981" font-family="Arial, sans-serif" font-size="11" font-weight="bold">$75.00/hr</text>
  
  <rect x="120" y="240" width="160" height="25" fill="#f9fafb"/>
  <text x="130" y="257" fill="#374151" font-family="Arial, sans-serif" font-size="11" font-weight="bold">Capital Supports</text>
  <text x="260" y="257" fill="#10b981" font-family="Arial, sans-serif" font-size="11" font-weight="bold">$85.00/hr</text>
  
  <rect x="120" y="270" width="160" height="25" fill="white"/>
  <text x="130" y="287" fill="#374151" font-family="Arial, sans-serif" font-size="11" font-weight="bold">Coordination</text>
  <text x="260" y="287" fill="#10b981" font-family="Arial, sans-serif" font-size="11" font-weight="bold">$95.00/hr</text>
  
  <rect x="120" y="300" width="160" height="25" fill="#f9fafb"/>
  <text x="130" y="317" fill="#374151" font-family="Arial, sans-serif" font-size="11" font-weight="bold">Specialized</text>
  <text x="260" y="317" fill="#10b981" font-family="Arial, sans-serif" font-size="11" font-weight="bold">$105.00/hr</text>
  
  <!-- Pricing Calculator -->
  <rect x="350" y="120" width="180" height="200" rx="8" fill="white" stroke="#e5e7eb" stroke-width="2"/>
  
  <!-- Calculator Header -->
  <rect x="350" y="120" width="180" height="30" fill="#2563eb"/>
  <text x="440" y="140" text-anchor="middle" fill="white" font-family="Arial, sans-serif" font-size="12" font-weight="bold">PRICING CALCULATOR</text>
  
  <!-- Calculator Display -->
  <rect x="370" y="160" width="140" height="30" rx="4" fill="#1f2937"/>
  <text x="440" y="180" text-anchor="middle" fill="#10b981" font-family="Arial, sans-serif" font-size="14" font-weight="bold">$65.00/hr</text>
  
  <!-- Calculator Buttons -->
  <rect x="370" y="200" width="30" height="25" rx="4" fill="#f3f4f6" stroke="#d1d5db"/>
  <text x="385" y="215" text-anchor="middle" fill="#374151" font-family="Arial, sans-serif" font-size="10">1</text>
  
  <rect x="410" y="200" width="30" height="25" rx="4" fill="#f3f4f6" stroke="#d1d5db"/>
  <text x="425" y="215" text-anchor="middle" fill="#374151" font-family="Arial, sans-serif" font-size="10">2</text>
  
  <rect x="450" y="200" width="30" height="25" rx="4" fill="#f3f4f6" stroke="#d1d5db"/>
  <text x="465" y="215" text-anchor="middle" fill="#374151" font-family="Arial, sans-serif" font-size="10">3</text>
  
  <rect x="370" y="235" width="30" height="25" rx="4" fill="#f3f4f6" stroke="#d1d5db"/>
  <text x="385" y="250" text-anchor="middle" fill="#374151" font-family="Arial, sans-serif" font-size="10">4</text>
  
  <rect x="410" y="235" width="30" height="25" rx="4" fill="#f3f4f6" stroke="#d1d5db"/>
  <text x="425" y="250" text-anchor="middle" fill="#374151" font-family="Arial, sans-serif" font-size="10">5</text>
  
  <rect x="450" y="235" width="30" height="25" rx="4" fill="#f3f4f6" stroke="#d1d5db"/>
  <text x="465" y="250" text-anchor="middle" fill="#374151" font-family="Arial, sans-serif" font-size="10">6</text>
  
  <rect x="370" y="270" width="30" height="25" rx="4" fill="#f3f4f6" stroke="#d1d5db"/>
  <text x="385" y="285" text-anchor="middle" fill="#374151" font-family="Arial, sans-serif" font-size="10">7</text>
  
  <rect x="410" y="270" width="30" height="25" rx="4" fill="#f3f4f6" stroke="#d1d5db"/>
  <text x="425" y="285" text-anchor="middle" fill="#374151" font-family="Arial, sans-serif" font-size="10">8</text>
  
  <rect x="450" y="270" width="30" height="25" rx="4" fill="#f3f4f6" stroke="#d1d5db"/>
  <text x="465" y="285" text-anchor="middle" fill="#374151" font-family="Arial, sans-serif" font-size="10">9</text>
  
  <rect x="370" y="305" width="70" height="25" rx="4" fill="#10b981" stroke="#10b981"/>
  <text x="405" y="320" text-anchor="middle" fill="white" font-family="Arial, sans-serif" font-size="10" font-weight="bold">CALCULATE</text>
  
  <!-- Market Analysis Chart -->
  <rect x="580" y="120" width="180" height="200" rx="8" fill="white" stroke="#e5e7eb" stroke-width="2"/>
  
  <!-- Chart Header -->
  <rect x="580" y="120" width="180" height="30" fill="#1e3a8a"/>
  <text x="670" y="140" text-anchor="middle" fill="white" font-family="Arial, sans-serif" font-size="12" font-weight="bold">MARKET ANALYSIS</text>
  
  <!-- Chart Bars -->
  <rect x="600" y="200" width="20" height="80" fill="#10b981"/>
  <text x="610" y="295" text-anchor="middle" fill="#374151" font-family="Arial, sans-serif" font-size="9">You</text>
  
  <rect x="630" y="180" width="20" height="100" fill="#2563eb"/>
  <text x="640" y="295" text-anchor="middle" fill="#374151" font-family="Arial, sans-serif" font-size="9">Comp 1</text>
  
  <rect x="660" y="190" width="20" height="90" fill="#f59e0b"/>
  <text x="670" y="295" text-anchor="middle" fill="#374151" font-family="Arial, sans-serif" font-size="9">Comp 2</text>
  
  <rect x="690" y="170" width="20" height="110" fill="#ef4444"/>
  <text x="700" y="295" text-anchor="middle" fill="#374151" font-family="Arial, sans-serif" font-size="9">Comp 3</text>
  
  <!-- Chart Labels -->
  <text x="670" y="310" text-anchor="middle" fill="#6b7280" font-family="Arial, sans-serif" font-size="10">Hourly Rates ($)</text>
  
  <!-- Dollar Sign Icon -->
  <circle cx="150" cy="320" r="25" fill="white" stroke="#10b981" stroke-width="3"/>
  <text x="150" y="330" text-anchor="middle" fill="#10b981" font-family="Arial, sans-serif" font-size="20" font-weight="bold">$</text>
  
  <!-- Main Title -->
  <text x="400" y="50" text-anchor="middle" fill="white" font-family="Arial, sans-serif" font-size="24" font-weight="bold">NDIS Pricing and Rate Setting</text>
  
  <!-- Subtitle -->
  <text x="400" y="75" text-anchor="middle" fill="#93c5fd" font-family="Arial, sans-serif" font-size="16">Complete Guide for Support Providers</text>
  
  <!-- Bottom Text -->
  <text x="400" y="380" text-anchor="middle" fill="white" font-family="Arial, sans-serif" font-size="14">Price Guide • Market Analysis • Competitive Pricing • Rate Setting</text>
</svg>
