<svg width="800" height="400" viewBox="0 0 800 400" fill="none" xmlns="http://www.w3.org/2000/svg">
  <!-- Background -->
  <rect width="800" height="400" fill="url(#gradient)"/>
  
  <!-- Gradient Definition -->
  <defs>
    <linearGradient id="gradient" x1="0%" y1="0%" x2="100%" y2="100%">
      <stop offset="0%" style="stop-color:#2563eb;stop-opacity:1" />
      <stop offset="100%" style="stop-color:#1e3a8a;stop-opacity:1" />
    </linearGradient>
  </defs>
  
  <!-- Laptop/Computer -->
  <rect x="100" y="140" width="200" height="120" rx="8" fill="white" stroke="#e5e7eb" stroke-width="2"/>
  <rect x="110" y="150" width="180" height="100" fill="#1f2937"/>
  
  <!-- Screen Content -->
  <rect x="120" y="160" width="160" height="15" fill="#2563eb"/>
  <rect x="120" y="185" width="140" height="8" fill="#6b7280"/>
  <rect x="120" y="200" width="120" height="8" fill="#6b7280"/>
  <rect x="120" y="215" width="100" height="8" fill="#6b7280"/>
  <rect x="120" y="230" width="110" height="8" fill="#6b7280"/>
  
  <!-- Mobile Phone -->
  <rect x="350" y="120" width="80" height="140" rx="12" fill="white" stroke="#e5e7eb" stroke-width="2"/>
  <rect x="360" y="130" width="60" height="120" fill="#1f2937"/>
  
  <!-- Phone Screen -->
  <rect x="365" y="135" width="50" height="8" fill="#2563eb"/>
  <rect x="365" y="150" width="40" height="6" fill="#6b7280"/>
  <rect x="365" y="165" width="45" height="6" fill="#6b7280"/>
  <rect x="365" y="180" width="35" height="6" fill="#6b7280"/>
  
  <!-- App Icons -->
  <circle cx="375" cy="200" r="8" fill="#10b981"/>
  <circle cx="395" cy="200" r="8" fill="#f59e0b"/>
  <circle cx="375" cy="220" r="8" fill="#ef4444"/>
  <circle cx="395" cy="220" r="8" fill="#8b5cf6"/>
  
  <!-- Tablet -->
  <rect x="480" y="130" width="120" height="160" rx="8" fill="white" stroke="#e5e7eb" stroke-width="2"/>
  <rect x="490" y="140" width="100" height="140" fill="#1f2937"/>
  
  <!-- Tablet Content -->
  <rect x="500" y="150" width="80" height="12" fill="#2563eb"/>
  <rect x="500" y="170" width="70" height="8" fill="#6b7280"/>
  <rect x="500" y="185" width="75" height="8" fill="#6b7280"/>
  <rect x="500" y="200" width="65" height="8" fill="#6b7280"/>
  
  <!-- Chart/Graph on Tablet -->
  <rect x="500" y="220" width="80" height="50" fill="#f9fafb"/>
  <rect x="510" y="250" width="8" height="15" fill="#2563eb"/>
  <rect x="525" y="240" width="8" height="25" fill="#1e3a8a"/>
  <rect x="540" y="230" width="8" height="35" fill="#2563eb"/>
  <rect x="555" y="220" width="8" height="45" fill="#1e3a8a"/>
  <rect x="570" y="235" width="8" height="30" fill="#2563eb"/>
  
  <!-- Cloud/Server -->
  <ellipse cx="200" cy="320" rx="40" ry="20" fill="white" stroke="#e5e7eb" stroke-width="2"/>
  <ellipse cx="180" cy="310" rx="30" ry="15" fill="white" stroke="#e5e7eb" stroke-width="2"/>
  <ellipse cx="220" cy="310" rx="30" ry="15" fill="white" stroke="#e5e7eb" stroke-width="2"/>
  
  <!-- Cloud Icons -->
  <circle cx="190" cy="315" r="3" fill="#2563eb"/>
  <circle cx="200" cy="315" r="3" fill="#10b981"/>
  <circle cx="210" cy="315" r="3" fill="#f59e0b"/>
  
  <!-- Network Connections -->
  <path d="M 200 300 L 200 320" stroke="#6b7280" stroke-width="2"/>
  <path d="M 200 300 L 150 250" stroke="#6b7280" stroke-width="2"/>
  <path d="M 200 300 L 250 250" stroke="#6b7280" stroke-width="2"/>
  <path d="M 200 300 L 200 200" stroke="#6b7280" stroke-width="2"/>
  
  <!-- Connection Nodes -->
  <circle cx="150" cy="250" r="5" fill="#10b981"/>
  <circle cx="250" cy="250" r="5" fill="#10b981"/>
  <circle cx="200" cy="200" r="5" fill="#10b981"/>
  
  <!-- Digital Icons -->
  <!-- Calendar Icon -->
  <rect x="650" y="150" width="40" height="35" rx="4" fill="white" stroke="#e5e7eb" stroke-width="2"/>
  <rect x="650" y="150" width="40" height="8" fill="#2563eb"/>
  <rect x="655" y="165" width="6" height="4" fill="#6b7280"/>
  <rect x="665" y="165" width="6" height="4" fill="#6b7280"/>
  <rect x="675" y="165" width="6" height="4" fill="#6b7280"/>
  <rect x="655" y="175" width="6" height="4" fill="#6b7280"/>
  <rect x="665" y="175" width="6" height="4" fill="#6b7280"/>
  <rect x="675" y="175" width="6" height="4" fill="#6b7280"/>
  
  <!-- Document Icon -->
  <rect x="650" y="200" width="30" height="40" rx="2" fill="white" stroke="#e5e7eb" stroke-width="2"/>
  <rect x="655" y="210" width="20" height="2" fill="#6b7280"/>
  <rect x="655" y="215" width="15" height="2" fill="#6b7280"/>
  <rect x="655" y="220" width="18" height="2" fill="#6b7280"/>
  <rect x="655" y="225" width="12" height="2" fill="#6b7280"/>
  
  <!-- Chart Icon -->
  <rect x="650" y="250" width="40" height="30" rx="4" fill="white" stroke="#e5e7eb" stroke-width="2"/>
  <rect x="660" y="270" width="4" height="8" fill="#2563eb"/>
  <rect x="670" y="265" width="4" height="13" fill="#1e3a8a"/>
  <rect x="680" y="260" width="4" height="18" fill="#2563eb"/>
  
  <!-- Main Title -->
  <text x="400" y="50" text-anchor="middle" fill="white" font-family="Arial, sans-serif" font-size="26" font-weight="bold">Digital Tools for NDIS Providers</text>
  
  <!-- Subtitle -->
  <text x="400" y="75" text-anchor="middle" fill="#93c5fd" font-family="Arial, sans-serif" font-size="16">Essential Technology Stack</text>
  
  <!-- Bottom Text -->
  <text x="400" y="380" text-anchor="middle" fill="white" font-family="Arial, sans-serif" font-size="14">Practice Management • Communication • Analytics • Compliance</text>
</svg>
